<svg xmlns="http://www.w3.org/2000/svg" width="96" height="96" viewBox="0 0 375 374.999991">
<defs><g/></defs><g fill="#000000" fill-opacity="0.302"><g transform="translate(63.287053, 295.471746)"><g><path d="M 57.484375 38.375 L 17.6875 1.421875 L 17.6875 -250.8125 L 117.796875 -250.8125 C 133.242188 -250.8125 147.242188 -248.125 159.796875 -242.75 C 172.359375 -237.382812 183.117188 -230.164062 192.078125 -221.09375 L 219.5 -193.5 C 226.457031 -186.539062 232.054688 -179.789062 236.296875 -173.25 C 240.546875 -166.707031 243.640625 -159.925781 245.578125 -152.90625 C 247.523438 -145.882812 248.5 -138.25 248.5 -130 C 248.5 -117.96875 245.460938 -106.410156 239.390625 -95.328125 C 233.316406 -84.242188 224.859375 -74.875 214.015625 -67.21875 L 276.453125 38.375 L 205.53125 38.375 L 147.859375 2.46875 L 122.578125 -46.875 L 116.203125 -46.875 L 116.203125 38.375 Z M 24.046875 -3.1875 L 72.875 -3.1875 L 72.875 -83.125 L 111.078125 -83.125 L 151.9375 -3.1875 L 210.828125 -3.1875 L 161.484375 -93.5625 C 170.921875 -98.875 179.023438 -105.332031 185.796875 -112.9375 C 192.578125 -120.539062 197.796875 -128.820312 201.453125 -137.78125 C 205.109375 -146.738281 206.9375 -155.992188 206.9375 -165.546875 C 206.9375 -176.867188 204.722656 -187.332031 200.296875 -196.9375 C 195.878906 -206.550781 189.660156 -214.925781 181.640625 -222.0625 C 173.628906 -229.195312 164.195312 -234.707031 153.34375 -238.59375 C 142.5 -242.488281 130.648438 -244.4375 117.796875 -244.4375 L 24.046875 -244.4375 Z M 72.875 -123.109375 L 72.875 -200.21875 L 118.328125 -200.21875 C 125.753906 -200.101562 132.414062 -198.332031 138.3125 -194.90625 C 144.207031 -191.488281 148.863281 -186.890625 152.28125 -181.109375 C 155.707031 -175.335938 157.421875 -168.851562 157.421875 -161.65625 C 157.421875 -154.34375 155.648438 -147.769531 152.109375 -141.9375 C 148.566406 -136.101562 143.757812 -131.503906 137.6875 -128.140625 C 131.625 -124.785156 124.757812 -123.109375 117.09375 -123.109375 Z M 215.78125 -82.25 L 221.625 -82.25 L 221.625 -87.90625 L 226.921875 -87.90625 L 228.515625 -90.03125 L 228.515625 -93.75 L 231.171875 -93.75 C 234.359375 -98.695312 236.773438 -103.644531 238.421875 -108.59375 L 235.765625 -108.59375 L 235.765625 -111.609375 L 238.953125 -111.609375 L 238.953125 -110.1875 C 241.078125 -116.5625 242.140625 -123.164062 242.140625 -130 C 242.140625 -136.363281 241.578125 -142.226562 240.453125 -147.59375 C 239.335938 -152.957031 237.421875 -158.203125 234.703125 -163.328125 C 231.992188 -168.460938 228.28125 -173.890625 223.5625 -179.609375 C 218.84375 -185.328125 212.945312 -191.664062 205.875 -198.625 C 208.351562 -193.195312 210.210938 -188.035156 211.453125 -183.140625 C 212.691406 -178.253906 213.3125 -172.273438 213.3125 -165.203125 C 213.3125 -159.535156 212.722656 -154.171875 211.546875 -149.109375 L 213.3125 -149.109375 L 213.3125 -146.796875 L 211.015625 -146.796875 C 210.421875 -144.203125 209.648438 -141.578125 208.703125 -138.921875 C 207.765625 -136.273438 206.707031 -133.65625 205.53125 -131.0625 L 207.828125 -131.0625 L 207.828125 -127 L 203.75 -127 L 203.75 -127.703125 L 202.171875 -124.6875 L 202.171875 -120.09375 L 199.328125 -120.09375 L 196.328125 -115.84375 L 196.328125 -113.375 L 194.375 -113.375 L 190.484375 -108.59375 L 190.484375 -107.359375 L 196.5 -107.359375 L 196.5 -113.203125 L 202.703125 -113.203125 L 202.703125 -107 L 196.859375 -107 L 196.859375 -101.171875 L 202.703125 -101.171875 L 202.703125 -106.828125 L 208.890625 -106.828125 L 208.890625 -100.640625 L 203.046875 -100.640625 L 203.046875 -94.796875 L 209.0625 -94.796875 L 209.0625 -100.640625 L 215.25 -100.640625 L 215.25 -94.453125 L 209.421875 -94.453125 L 209.421875 -88.4375 L 215.4375 -88.4375 L 215.4375 -94.265625 L 221.4375 -94.265625 L 221.4375 -88.078125 L 215.78125 -88.078125 Z M 84.546875 -190.140625 L 88.078125 -190.140625 L 88.078125 -193.671875 L 84.546875 -193.671875 Z M 97.640625 -190.140625 L 101.171875 -190.140625 L 101.171875 -193.671875 L 97.640625 -193.671875 Z M 111.25 -190.671875 L 113.734375 -190.671875 L 113.734375 -193.140625 L 111.25 -193.140625 Z M 124.515625 -190.484375 L 126.28125 -190.484375 L 126.28125 -192.265625 L 124.515625 -192.265625 Z M 79.234375 -183.0625 L 82.421875 -183.0625 L 82.421875 -188.015625 L 79.234375 -188.015625 Z M 90.90625 -183.0625 L 94.453125 -183.0625 L 94.453125 -186.59375 L 90.90625 -186.59375 Z M 104 -183.0625 L 107.53125 -183.0625 L 107.53125 -186.59375 L 104 -186.59375 Z M 117.625 -183.59375 L 120.09375 -183.59375 L 120.09375 -186.0625 L 117.625 -186.0625 Z M 131.234375 -184.125 L 133.015625 -184.125 L 133.015625 -185.890625 L 131.234375 -185.890625 Z M 83.84375 -176.703125 L 88.796875 -176.703125 L 88.796875 -181.640625 L 83.84375 -181.640625 Z M 97.640625 -176.875 L 101.171875 -176.875 L 101.171875 -180.40625 L 97.640625 -180.40625 Z M 110.71875 -176.875 L 114.265625 -176.875 L 114.265625 -180.40625 L 110.71875 -180.40625 Z M 124.34375 -177.40625 L 126.640625 -177.40625 L 126.640625 -179.703125 L 124.34375 -179.703125 Z M 137.953125 -177.75 L 139.734375 -177.75 L 139.734375 -179.53125 L 137.953125 -179.53125 Z M 79.234375 -129.46875 L 106.296875 -129.46875 L 106.296875 -139.734375 L 103.46875 -139.734375 L 103.46875 -144.15625 L 106.296875 -144.15625 L 106.296875 -151.21875 L 102.40625 -151.21875 L 102.40625 -157.421875 L 96.046875 -157.421875 L 96.046875 -163.78125 L 89.671875 -163.78125 L 89.671875 -170.15625 L 83.484375 -170.15625 L 83.484375 -176.34375 L 79.234375 -176.34375 L 79.234375 -169.265625 L 82.78125 -169.265625 L 82.78125 -164.84375 L 79.234375 -164.84375 Z M 90.03125 -170.5 L 94.984375 -170.5 L 94.984375 -175.28125 L 90.03125 -175.28125 Z M 104.359375 -169.96875 L 107.890625 -169.96875 L 107.890625 -173.515625 L 104.359375 -173.515625 Z M 117.4375 -169.96875 L 120.984375 -169.96875 L 120.984375 -173.515625 L 117.4375 -173.515625 Z M 131.0625 -170.5 L 133.53125 -170.5 L 133.53125 -172.984375 L 131.0625 -172.984375 Z M 144.6875 -170.859375 L 146.453125 -170.859375 L 146.453125 -172.625 L 144.6875 -172.625 Z M 96.390625 -164.140625 L 101.34375 -164.140625 L 101.34375 -169.09375 L 96.390625 -169.09375 Z M 84.546875 -158.484375 L 84.546875 -163.078125 L 88.96875 -163.078125 L 88.96875 -158.484375 Z M 102.765625 -157.765625 L 106.296875 -157.765625 L 106.296875 -162.71875 L 102.765625 -162.71875 Z M 112.671875 -129.46875 L 117.09375 -129.46875 C 123.695312 -129.46875 129.53125 -130.878906 134.59375 -133.703125 C 139.664062 -136.535156 143.675781 -140.398438 146.625 -145.296875 C 149.570312 -150.191406 151.046875 -155.820312 151.046875 -162.1875 L 112.671875 -162.1875 Z M 90.90625 -152.28125 L 90.90625 -156.703125 L 95.328125 -156.703125 L 95.328125 -152.28125 Z M 79.765625 -153.34375 L 79.765625 -155.640625 L 81.890625 -155.640625 L 81.890625 -153.34375 Z M 217.734375 -153.34375 L 217.734375 -154.9375 L 219.328125 -154.9375 L 219.328125 -153.34375 Z M 97.109375 -145.921875 L 97.109375 -150.34375 L 101.703125 -150.34375 L 101.703125 -145.921875 Z M 85.953125 -147.15625 L 85.953125 -149.28125 L 88.078125 -149.28125 L 88.078125 -147.15625 Z M 223.921875 -147.15625 L 223.921875 -148.75 L 225.515625 -148.75 L 225.515625 -147.15625 Z M 91.96875 -140.796875 L 91.96875 -142.90625 L 94.09375 -142.90625 L 94.09375 -140.796875 Z M 217.375 -140.4375 L 217.375 -142.734375 L 219.5 -142.734375 L 219.5 -140.4375 Z M 230.28125 -140.796875 L 230.28125 -142.375 L 231.875 -142.375 L 231.875 -140.796875 Z M 210.484375 -133.71875 L 210.484375 -136.90625 L 213.65625 -136.90625 L 213.65625 -133.71875 Z M 98.34375 -134.421875 L 98.34375 -136.71875 L 100.46875 -136.71875 L 100.46875 -134.421875 Z M 223.5625 -134.25 L 223.5625 -136.375 L 225.859375 -136.375 L 225.859375 -134.25 Z M 236.65625 -134.59375 L 236.65625 -136.015625 L 238.0625 -136.015625 L 238.0625 -134.59375 Z M 216.84375 -127.34375 L 216.84375 -130.53125 L 220.03125 -130.53125 L 220.03125 -127.34375 Z M 229.9375 -127.875 L 229.9375 -130.171875 L 232.0625 -130.171875 L 232.0625 -127.875 Z M 210.125 -120.625 L 210.125 -124.875 L 214.1875 -124.875 L 214.1875 -120.625 Z M 223.21875 -121.15625 L 223.21875 -124.34375 L 226.390625 -124.34375 L 226.390625 -121.15625 Z M 236.296875 -121.6875 L 236.296875 -123.8125 L 238.421875 -123.8125 L 238.421875 -121.6875 Z M 203.21875 -113.90625 L 203.21875 -119.03125 L 208.359375 -119.03125 L 208.359375 -113.90625 Z M 216.3125 -114.265625 L 216.3125 -118.5 L 220.5625 -118.5 L 220.5625 -114.265625 Z M 229.40625 -114.796875 L 229.40625 -117.96875 L 232.59375 -117.96875 L 232.59375 -114.796875 Z M 209.59375 -107.53125 L 209.59375 -112.671875 L 214.71875 -112.671875 L 214.71875 -107.53125 Z M 222.6875 -108.0625 L 222.6875 -112.140625 L 226.75 -112.140625 L 226.75 -108.0625 Z M 184.65625 -101.53125 L 189.609375 -101.53125 L 189.609375 -106.484375 L 188.375 -106.484375 L 184.65625 -102.765625 Z M 215.78125 -101.171875 L 215.78125 -106.296875 L 221.09375 -106.296875 L 221.09375 -101.171875 Z M 228.875 -101.703125 L 228.875 -105.953125 L 233.125 -105.953125 L 233.125 -101.703125 Z M 191.015625 -95.328125 L 195.96875 -95.328125 L 195.96875 -100.28125 L 191.015625 -100.28125 Z M 222.15625 -94.984375 L 222.15625 -100.109375 L 227.28125 -100.109375 L 227.28125 -94.984375 Z M 178.46875 -95.6875 L 182.359375 -95.6875 L 182.359375 -99.578125 L 181.125 -99.578125 L 178.46875 -97.28125 Z M 197.390625 -88.96875 L 202.171875 -88.96875 L 202.171875 -93.921875 L 197.390625 -93.921875 Z M 185.015625 -89.328125 L 188.71875 -89.328125 L 188.71875 -93.21875 L 185.015625 -93.21875 Z M 264.59375 31.125 L 211.1875 -59.421875 L 209.59375 -59.421875 L 209.59375 -62.265625 L 208.703125 -63.84375 L 202.34375 -63.84375 L 202.34375 -70.046875 L 195.96875 -70.046875 L 195.96875 -75.875 L 189.4375 -75.875 L 189.4375 -81 L 182.703125 -81 L 182.703125 -86.3125 L 175.8125 -86.3125 L 175.8125 -92.5 L 171.921875 -92.5 L 169.96875 -91.265625 L 172.796875 -86.140625 L 175.109375 -86.140625 L 175.109375 -81.890625 L 176.34375 -79.59375 L 176.34375 -80.65625 L 181.640625 -80.65625 L 181.640625 -75.34375 L 178.640625 -75.34375 L 185.359375 -62.96875 L 186.78125 -62.96875 L 186.78125 -60.484375 L 221.4375 3 Z M 203.578125 -82.59375 L 208.53125 -82.59375 L 208.53125 -87.546875 L 203.578125 -87.546875 Z M 191.375 -83.125 L 195.265625 -83.125 L 195.265625 -86.84375 L 191.375 -86.84375 Z M 209.953125 -76.40625 L 214.90625 -76.40625 L 214.90625 -81.359375 L 209.953125 -81.359375 Z M 197.5625 -76.9375 L 201.8125 -76.9375 L 201.8125 -81 L 197.5625 -81 Z M 79.234375 -70.578125 L 84.015625 -70.578125 L 84.015625 -76.40625 L 79.234375 -76.40625 Z M 183.421875 -70.21875 L 183.421875 -75 L 188.1875 -75 L 188.1875 -70.21875 Z M 203.9375 -70.578125 L 207.828125 -70.578125 L 208.359375 -70.921875 L 208.359375 -74.8125 L 203.9375 -74.8125 Z M 85.078125 -64.5625 L 90.203125 -64.5625 L 90.203125 -69.515625 L 85.078125 -69.515625 Z M 190.140625 -64.734375 L 190.140625 -68.984375 L 194.375 -68.984375 L 194.375 -64.734375 Z M 109.84375 32.1875 L 109.84375 -38.90625 L 103.828125 -38.90625 L 103.828125 -45.28125 L 97.453125 -45.28125 L 97.453125 -51.46875 L 91.265625 -51.46875 L 91.265625 -57.84375 L 84.71875 -57.84375 L 84.71875 -64.03125 L 79.234375 -64.03125 L 79.234375 3 Z M 196.6875 -59.609375 L 196.6875 -63.5 L 200.578125 -63.5 L 200.578125 -59.609375 Z M 91.625 -58.1875 L 96.390625 -58.1875 L 96.390625 -63.140625 L 91.625 -63.140625 Z M 204.28125 -54.828125 L 204.28125 -58.1875 L 207.640625 -58.1875 L 207.640625 -54.828125 Z M 190.484375 -54.828125 L 190.484375 -57.65625 L 193.328125 -57.65625 L 193.328125 -54.828125 Z M 79.765625 -52.703125 L 79.765625 -57.125 L 84.1875 -57.125 L 84.1875 -52.703125 Z M 97.8125 -51.828125 L 102.765625 -51.828125 L 102.765625 -56.78125 L 97.8125 -56.78125 Z M 211.1875 -50.40625 L 211.1875 -53.234375 L 214.015625 -53.234375 L 214.015625 -50.40625 Z M 198.09375 -50.765625 L 198.09375 -52.703125 L 200.046875 -52.703125 L 200.046875 -50.765625 Z M 85.953125 -46.34375 L 85.953125 -50.765625 L 90.375 -50.765625 L 90.375 -46.34375 Z M 104.171875 -45.640625 L 109.125 -45.640625 L 109.125 -50.40625 L 104.171875 -50.40625 Z M 92.328125 -39.96875 L 92.328125 -44.578125 L 96.75 -44.578125 L 96.75 -39.96875 Z M 80.828125 -41.21875 L 80.828125 -43.328125 L 82.953125 -43.328125 L 82.953125 -41.21875 Z M 98.515625 -33.78125 L 98.515625 -38.203125 L 103.109375 -38.203125 L 103.109375 -33.78125 Z M 87.203125 -34.84375 L 87.203125 -36.96875 L 89.328125 -36.96875 L 89.328125 -34.84375 Z M 104.890625 -27.421875 L 104.890625 -31.84375 L 109.3125 -31.84375 L 109.3125 -27.421875 Z M 93.390625 -28.65625 L 93.390625 -30.78125 L 95.6875 -30.78125 L 95.6875 -28.65625 Z M 99.75 -22.28125 L 99.75 -24.40625 L 101.875 -24.40625 L 101.875 -22.28125 Z M 106.125 -15.921875 L 106.125 -18.21875 L 108.25 -18.21875 L 108.25 -15.921875 Z M 106.125 -15.921875 "/></g></g></g><g fill="#000000" fill-opacity="0.502"><g transform="translate(57.038901, 289.223593)"><g><path d="M 57.484375 38.375 L 17.6875 1.421875 L 17.6875 -250.8125 L 117.796875 -250.8125 C 133.242188 -250.8125 147.242188 -248.125 159.796875 -242.75 C 172.359375 -237.382812 183.117188 -230.164062 192.078125 -221.09375 L 219.5 -193.5 C 226.457031 -186.539062 232.054688 -179.789062 236.296875 -173.25 C 240.546875 -166.707031 243.640625 -159.925781 245.578125 -152.90625 C 247.523438 -145.882812 248.5 -138.25 248.5 -130 C 248.5 -117.96875 245.460938 -106.410156 239.390625 -95.328125 C 233.316406 -84.242188 224.859375 -74.875 214.015625 -67.21875 L 276.453125 38.375 L 205.53125 38.375 L 147.859375 2.46875 L 122.578125 -46.875 L 116.203125 -46.875 L 116.203125 38.375 Z M 24.046875 -3.1875 L 72.875 -3.1875 L 72.875 -83.125 L 111.078125 -83.125 L 151.9375 -3.1875 L 210.828125 -3.1875 L 161.484375 -93.5625 C 170.921875 -98.875 179.023438 -105.332031 185.796875 -112.9375 C 192.578125 -120.539062 197.796875 -128.820312 201.453125 -137.78125 C 205.109375 -146.738281 206.9375 -155.992188 206.9375 -165.546875 C 206.9375 -176.867188 204.722656 -187.332031 200.296875 -196.9375 C 195.878906 -206.550781 189.660156 -214.925781 181.640625 -222.0625 C 173.628906 -229.195312 164.195312 -234.707031 153.34375 -238.59375 C 142.5 -242.488281 130.648438 -244.4375 117.796875 -244.4375 L 24.046875 -244.4375 Z M 72.875 -123.109375 L 72.875 -200.21875 L 118.328125 -200.21875 C 125.753906 -200.101562 132.414062 -198.332031 138.3125 -194.90625 C 144.207031 -191.488281 148.863281 -186.890625 152.28125 -181.109375 C 155.707031 -175.335938 157.421875 -168.851562 157.421875 -161.65625 C 157.421875 -154.34375 155.648438 -147.769531 152.109375 -141.9375 C 148.566406 -136.101562 143.757812 -131.503906 137.6875 -128.140625 C 131.625 -124.785156 124.757812 -123.109375 117.09375 -123.109375 Z M 215.78125 -82.25 L 221.625 -82.25 L 221.625 -87.90625 L 226.921875 -87.90625 L 228.515625 -90.03125 L 228.515625 -93.75 L 231.171875 -93.75 C 234.359375 -98.695312 236.773438 -103.644531 238.421875 -108.59375 L 235.765625 -108.59375 L 235.765625 -111.609375 L 238.953125 -111.609375 L 238.953125 -110.1875 C 241.078125 -116.5625 242.140625 -123.164062 242.140625 -130 C 242.140625 -136.363281 241.578125 -142.226562 240.453125 -147.59375 C 239.335938 -152.957031 237.421875 -158.203125 234.703125 -163.328125 C 231.992188 -168.460938 228.28125 -173.890625 223.5625 -179.609375 C 218.84375 -185.328125 212.945312 -191.664062 205.875 -198.625 C 208.351562 -193.195312 210.210938 -188.035156 211.453125 -183.140625 C 212.691406 -178.253906 213.3125 -172.273438 213.3125 -165.203125 C 213.3125 -159.535156 212.722656 -154.171875 211.546875 -149.109375 L 213.3125 -149.109375 L 213.3125 -146.796875 L 211.015625 -146.796875 C 210.421875 -144.203125 209.648438 -141.578125 208.703125 -138.921875 C 207.765625 -136.273438 206.707031 -133.65625 205.53125 -131.0625 L 207.828125 -131.0625 L 207.828125 -127 L 203.75 -127 L 203.75 -127.703125 L 202.171875 -124.6875 L 202.171875 -120.09375 L 199.328125 -120.09375 L 196.328125 -115.84375 L 196.328125 -113.375 L 194.375 -113.375 L 190.484375 -108.59375 L 190.484375 -107.359375 L 196.5 -107.359375 L 196.5 -113.203125 L 202.703125 -113.203125 L 202.703125 -107 L 196.859375 -107 L 196.859375 -101.171875 L 202.703125 -101.171875 L 202.703125 -106.828125 L 208.890625 -106.828125 L 208.890625 -100.640625 L 203.046875 -100.640625 L 203.046875 -94.796875 L 209.0625 -94.796875 L 209.0625 -100.640625 L 215.25 -100.640625 L 215.25 -94.453125 L 209.421875 -94.453125 L 209.421875 -88.4375 L 215.4375 -88.4375 L 215.4375 -94.265625 L 221.4375 -94.265625 L 221.4375 -88.078125 L 215.78125 -88.078125 Z M 84.546875 -190.140625 L 88.078125 -190.140625 L 88.078125 -193.671875 L 84.546875 -193.671875 Z M 97.640625 -190.140625 L 101.171875 -190.140625 L 101.171875 -193.671875 L 97.640625 -193.671875 Z M 111.25 -190.671875 L 113.734375 -190.671875 L 113.734375 -193.140625 L 111.25 -193.140625 Z M 124.515625 -190.484375 L 126.28125 -190.484375 L 126.28125 -192.265625 L 124.515625 -192.265625 Z M 79.234375 -183.0625 L 82.421875 -183.0625 L 82.421875 -188.015625 L 79.234375 -188.015625 Z M 90.90625 -183.0625 L 94.453125 -183.0625 L 94.453125 -186.59375 L 90.90625 -186.59375 Z M 104 -183.0625 L 107.53125 -183.0625 L 107.53125 -186.59375 L 104 -186.59375 Z M 117.625 -183.59375 L 120.09375 -183.59375 L 120.09375 -186.0625 L 117.625 -186.0625 Z M 131.234375 -184.125 L 133.015625 -184.125 L 133.015625 -185.890625 L 131.234375 -185.890625 Z M 83.84375 -176.703125 L 88.796875 -176.703125 L 88.796875 -181.640625 L 83.84375 -181.640625 Z M 97.640625 -176.875 L 101.171875 -176.875 L 101.171875 -180.40625 L 97.640625 -180.40625 Z M 110.71875 -176.875 L 114.265625 -176.875 L 114.265625 -180.40625 L 110.71875 -180.40625 Z M 124.34375 -177.40625 L 126.640625 -177.40625 L 126.640625 -179.703125 L 124.34375 -179.703125 Z M 137.953125 -177.75 L 139.734375 -177.75 L 139.734375 -179.53125 L 137.953125 -179.53125 Z M 79.234375 -129.46875 L 106.296875 -129.46875 L 106.296875 -139.734375 L 103.46875 -139.734375 L 103.46875 -144.15625 L 106.296875 -144.15625 L 106.296875 -151.21875 L 102.40625 -151.21875 L 102.40625 -157.421875 L 96.046875 -157.421875 L 96.046875 -163.78125 L 89.671875 -163.78125 L 89.671875 -170.15625 L 83.484375 -170.15625 L 83.484375 -176.34375 L 79.234375 -176.34375 L 79.234375 -169.265625 L 82.78125 -169.265625 L 82.78125 -164.84375 L 79.234375 -164.84375 Z M 90.03125 -170.5 L 94.984375 -170.5 L 94.984375 -175.28125 L 90.03125 -175.28125 Z M 104.359375 -169.96875 L 107.890625 -169.96875 L 107.890625 -173.515625 L 104.359375 -173.515625 Z M 117.4375 -169.96875 L 120.984375 -169.96875 L 120.984375 -173.515625 L 117.4375 -173.515625 Z M 131.0625 -170.5 L 133.53125 -170.5 L 133.53125 -172.984375 L 131.0625 -172.984375 Z M 144.6875 -170.859375 L 146.453125 -170.859375 L 146.453125 -172.625 L 144.6875 -172.625 Z M 96.390625 -164.140625 L 101.34375 -164.140625 L 101.34375 -169.09375 L 96.390625 -169.09375 Z M 84.546875 -158.484375 L 84.546875 -163.078125 L 88.96875 -163.078125 L 88.96875 -158.484375 Z M 102.765625 -157.765625 L 106.296875 -157.765625 L 106.296875 -162.71875 L 102.765625 -162.71875 Z M 112.671875 -129.46875 L 117.09375 -129.46875 C 123.695312 -129.46875 129.53125 -130.878906 134.59375 -133.703125 C 139.664062 -136.535156 143.675781 -140.398438 146.625 -145.296875 C 149.570312 -150.191406 151.046875 -155.820312 151.046875 -162.1875 L 112.671875 -162.1875 Z M 90.90625 -152.28125 L 90.90625 -156.703125 L 95.328125 -156.703125 L 95.328125 -152.28125 Z M 79.765625 -153.34375 L 79.765625 -155.640625 L 81.890625 -155.640625 L 81.890625 -153.34375 Z M 217.734375 -153.34375 L 217.734375 -154.9375 L 219.328125 -154.9375 L 219.328125 -153.34375 Z M 97.109375 -145.921875 L 97.109375 -150.34375 L 101.703125 -150.34375 L 101.703125 -145.921875 Z M 85.953125 -147.15625 L 85.953125 -149.28125 L 88.078125 -149.28125 L 88.078125 -147.15625 Z M 223.921875 -147.15625 L 223.921875 -148.75 L 225.515625 -148.75 L 225.515625 -147.15625 Z M 91.96875 -140.796875 L 91.96875 -142.90625 L 94.09375 -142.90625 L 94.09375 -140.796875 Z M 217.375 -140.4375 L 217.375 -142.734375 L 219.5 -142.734375 L 219.5 -140.4375 Z M 230.28125 -140.796875 L 230.28125 -142.375 L 231.875 -142.375 L 231.875 -140.796875 Z M 210.484375 -133.71875 L 210.484375 -136.90625 L 213.65625 -136.90625 L 213.65625 -133.71875 Z M 98.34375 -134.421875 L 98.34375 -136.71875 L 100.46875 -136.71875 L 100.46875 -134.421875 Z M 223.5625 -134.25 L 223.5625 -136.375 L 225.859375 -136.375 L 225.859375 -134.25 Z M 236.65625 -134.59375 L 236.65625 -136.015625 L 238.0625 -136.015625 L 238.0625 -134.59375 Z M 216.84375 -127.34375 L 216.84375 -130.53125 L 220.03125 -130.53125 L 220.03125 -127.34375 Z M 229.9375 -127.875 L 229.9375 -130.171875 L 232.0625 -130.171875 L 232.0625 -127.875 Z M 210.125 -120.625 L 210.125 -124.875 L 214.1875 -124.875 L 214.1875 -120.625 Z M 223.21875 -121.15625 L 223.21875 -124.34375 L 226.390625 -124.34375 L 226.390625 -121.15625 Z M 236.296875 -121.6875 L 236.296875 -123.8125 L 238.421875 -123.8125 L 238.421875 -121.6875 Z M 203.21875 -113.90625 L 203.21875 -119.03125 L 208.359375 -119.03125 L 208.359375 -113.90625 Z M 216.3125 -114.265625 L 216.3125 -118.5 L 220.5625 -118.5 L 220.5625 -114.265625 Z M 229.40625 -114.796875 L 229.40625 -117.96875 L 232.59375 -117.96875 L 232.59375 -114.796875 Z M 209.59375 -107.53125 L 209.59375 -112.671875 L 214.71875 -112.671875 L 214.71875 -107.53125 Z M 222.6875 -108.0625 L 222.6875 -112.140625 L 226.75 -112.140625 L 226.75 -108.0625 Z M 184.65625 -101.53125 L 189.609375 -101.53125 L 189.609375 -106.484375 L 188.375 -106.484375 L 184.65625 -102.765625 Z M 215.78125 -101.171875 L 215.78125 -106.296875 L 221.09375 -106.296875 L 221.09375 -101.171875 Z M 228.875 -101.703125 L 228.875 -105.953125 L 233.125 -105.953125 L 233.125 -101.703125 Z M 191.015625 -95.328125 L 195.96875 -95.328125 L 195.96875 -100.28125 L 191.015625 -100.28125 Z M 222.15625 -94.984375 L 222.15625 -100.109375 L 227.28125 -100.109375 L 227.28125 -94.984375 Z M 178.46875 -95.6875 L 182.359375 -95.6875 L 182.359375 -99.578125 L 181.125 -99.578125 L 178.46875 -97.28125 Z M 197.390625 -88.96875 L 202.171875 -88.96875 L 202.171875 -93.921875 L 197.390625 -93.921875 Z M 185.015625 -89.328125 L 188.71875 -89.328125 L 188.71875 -93.21875 L 185.015625 -93.21875 Z M 264.59375 31.125 L 211.1875 -59.421875 L 209.59375 -59.421875 L 209.59375 -62.265625 L 208.703125 -63.84375 L 202.34375 -63.84375 L 202.34375 -70.046875 L 195.96875 -70.046875 L 195.96875 -75.875 L 189.4375 -75.875 L 189.4375 -81 L 182.703125 -81 L 182.703125 -86.3125 L 175.8125 -86.3125 L 175.8125 -92.5 L 171.921875 -92.5 L 169.96875 -91.265625 L 172.796875 -86.140625 L 175.109375 -86.140625 L 175.109375 -81.890625 L 176.34375 -79.59375 L 176.34375 -80.65625 L 181.640625 -80.65625 L 181.640625 -75.34375 L 178.640625 -75.34375 L 185.359375 -62.96875 L 186.78125 -62.96875 L 186.78125 -60.484375 L 221.4375 3 Z M 203.578125 -82.59375 L 208.53125 -82.59375 L 208.53125 -87.546875 L 203.578125 -87.546875 Z M 191.375 -83.125 L 195.265625 -83.125 L 195.265625 -86.84375 L 191.375 -86.84375 Z M 209.953125 -76.40625 L 214.90625 -76.40625 L 214.90625 -81.359375 L 209.953125 -81.359375 Z M 197.5625 -76.9375 L 201.8125 -76.9375 L 201.8125 -81 L 197.5625 -81 Z M 79.234375 -70.578125 L 84.015625 -70.578125 L 84.015625 -76.40625 L 79.234375 -76.40625 Z M 183.421875 -70.21875 L 183.421875 -75 L 188.1875 -75 L 188.1875 -70.21875 Z M 203.9375 -70.578125 L 207.828125 -70.578125 L 208.359375 -70.921875 L 208.359375 -74.8125 L 203.9375 -74.8125 Z M 85.078125 -64.5625 L 90.203125 -64.5625 L 90.203125 -69.515625 L 85.078125 -69.515625 Z M 190.140625 -64.734375 L 190.140625 -68.984375 L 194.375 -68.984375 L 194.375 -64.734375 Z M 109.84375 32.1875 L 109.84375 -38.90625 L 103.828125 -38.90625 L 103.828125 -45.28125 L 97.453125 -45.28125 L 97.453125 -51.46875 L 91.265625 -51.46875 L 91.265625 -57.84375 L 84.71875 -57.84375 L 84.71875 -64.03125 L 79.234375 -64.03125 L 79.234375 3 Z M 196.6875 -59.609375 L 196.6875 -63.5 L 200.578125 -63.5 L 200.578125 -59.609375 Z M 91.625 -58.1875 L 96.390625 -58.1875 L 96.390625 -63.140625 L 91.625 -63.140625 Z M 204.28125 -54.828125 L 204.28125 -58.1875 L 207.640625 -58.1875 L 207.640625 -54.828125 Z M 190.484375 -54.828125 L 190.484375 -57.65625 L 193.328125 -57.65625 L 193.328125 -54.828125 Z M 79.765625 -52.703125 L 79.765625 -57.125 L 84.1875 -57.125 L 84.1875 -52.703125 Z M 97.8125 -51.828125 L 102.765625 -51.828125 L 102.765625 -56.78125 L 97.8125 -56.78125 Z M 211.1875 -50.40625 L 211.1875 -53.234375 L 214.015625 -53.234375 L 214.015625 -50.40625 Z M 198.09375 -50.765625 L 198.09375 -52.703125 L 200.046875 -52.703125 L 200.046875 -50.765625 Z M 85.953125 -46.34375 L 85.953125 -50.765625 L 90.375 -50.765625 L 90.375 -46.34375 Z M 104.171875 -45.640625 L 109.125 -45.640625 L 109.125 -50.40625 L 104.171875 -50.40625 Z M 92.328125 -39.96875 L 92.328125 -44.578125 L 96.75 -44.578125 L 96.75 -39.96875 Z M 80.828125 -41.21875 L 80.828125 -43.328125 L 82.953125 -43.328125 L 82.953125 -41.21875 Z M 98.515625 -33.78125 L 98.515625 -38.203125 L 103.109375 -38.203125 L 103.109375 -33.78125 Z M 87.203125 -34.84375 L 87.203125 -36.96875 L 89.328125 -36.96875 L 89.328125 -34.84375 Z M 104.890625 -27.421875 L 104.890625 -31.84375 L 109.3125 -31.84375 L 109.3125 -27.421875 Z M 93.390625 -28.65625 L 93.390625 -30.78125 L 95.6875 -30.78125 L 95.6875 -28.65625 Z M 99.75 -22.28125 L 99.75 -24.40625 L 101.875 -24.40625 L 101.875 -22.28125 Z M 106.125 -15.921875 L 106.125 -18.21875 L 108.25 -18.21875 L 108.25 -15.921875 Z M 106.125 -15.921875 "/></g></g></g><g fill="#000000" fill-opacity="1"><g transform="translate(50.790751, 282.975443)"><g><path d="M 57.484375 38.375 L 17.6875 1.421875 L 17.6875 -250.8125 L 117.796875 -250.8125 C 133.242188 -250.8125 147.242188 -248.125 159.796875 -242.75 C 172.359375 -237.382812 183.117188 -230.164062 192.078125 -221.09375 L 219.5 -193.5 C 226.457031 -186.539062 232.054688 -179.789062 236.296875 -173.25 C 240.546875 -166.707031 243.640625 -159.925781 245.578125 -152.90625 C 247.523438 -145.882812 248.5 -138.25 248.5 -130 C 248.5 -117.96875 245.460938 -106.410156 239.390625 -95.328125 C 233.316406 -84.242188 224.859375 -74.875 214.015625 -67.21875 L 276.453125 38.375 L 205.53125 38.375 L 147.859375 2.46875 L 122.578125 -46.875 L 116.203125 -46.875 L 116.203125 38.375 Z M 24.046875 -3.1875 L 72.875 -3.1875 L 72.875 -83.125 L 111.078125 -83.125 L 151.9375 -3.1875 L 210.828125 -3.1875 L 161.484375 -93.5625 C 170.921875 -98.875 179.023438 -105.332031 185.796875 -112.9375 C 192.578125 -120.539062 197.796875 -128.820312 201.453125 -137.78125 C 205.109375 -146.738281 206.9375 -155.992188 206.9375 -165.546875 C 206.9375 -176.867188 204.722656 -187.332031 200.296875 -196.9375 C 195.878906 -206.550781 189.660156 -214.925781 181.640625 -222.0625 C 173.628906 -229.195312 164.195312 -234.707031 153.34375 -238.59375 C 142.5 -242.488281 130.648438 -244.4375 117.796875 -244.4375 L 24.046875 -244.4375 Z M 72.875 -123.109375 L 72.875 -200.21875 L 118.328125 -200.21875 C 125.753906 -200.101562 132.414062 -198.332031 138.3125 -194.90625 C 144.207031 -191.488281 148.863281 -186.890625 152.28125 -181.109375 C 155.707031 -175.335938 157.421875 -168.851562 157.421875 -161.65625 C 157.421875 -154.34375 155.648438 -147.769531 152.109375 -141.9375 C 148.566406 -136.101562 143.757812 -131.503906 137.6875 -128.140625 C 131.625 -124.785156 124.757812 -123.109375 117.09375 -123.109375 Z M 215.78125 -82.25 L 221.625 -82.25 L 221.625 -87.90625 L 226.921875 -87.90625 L 228.515625 -90.03125 L 228.515625 -93.75 L 231.171875 -93.75 C 234.359375 -98.695312 236.773438 -103.644531 238.421875 -108.59375 L 235.765625 -108.59375 L 235.765625 -111.609375 L 238.953125 -111.609375 L 238.953125 -110.1875 C 241.078125 -116.5625 242.140625 -123.164062 242.140625 -130 C 242.140625 -136.363281 241.578125 -142.226562 240.453125 -147.59375 C 239.335938 -152.957031 237.421875 -158.203125 234.703125 -163.328125 C 231.992188 -168.460938 228.28125 -173.890625 223.5625 -179.609375 C 218.84375 -185.328125 212.945312 -191.664062 205.875 -198.625 C 208.351562 -193.195312 210.210938 -188.035156 211.453125 -183.140625 C 212.691406 -178.253906 213.3125 -172.273438 213.3125 -165.203125 C 213.3125 -159.535156 212.722656 -154.171875 211.546875 -149.109375 L 213.3125 -149.109375 L 213.3125 -146.796875 L 211.015625 -146.796875 C 210.421875 -144.203125 209.648438 -141.578125 208.703125 -138.921875 C 207.765625 -136.273438 206.707031 -133.65625 205.53125 -131.0625 L 207.828125 -131.0625 L 207.828125 -127 L 203.75 -127 L 203.75 -127.703125 L 202.171875 -124.6875 L 202.171875 -120.09375 L 199.328125 -120.09375 L 196.328125 -115.84375 L 196.328125 -113.375 L 194.375 -113.375 L 190.484375 -108.59375 L 190.484375 -107.359375 L 196.5 -107.359375 L 196.5 -113.203125 L 202.703125 -113.203125 L 202.703125 -107 L 196.859375 -107 L 196.859375 -101.171875 L 202.703125 -101.171875 L 202.703125 -106.828125 L 208.890625 -106.828125 L 208.890625 -100.640625 L 203.046875 -100.640625 L 203.046875 -94.796875 L 209.0625 -94.796875 L 209.0625 -100.640625 L 215.25 -100.640625 L 215.25 -94.453125 L 209.421875 -94.453125 L 209.421875 -88.4375 L 215.4375 -88.4375 L 215.4375 -94.265625 L 221.4375 -94.265625 L 221.4375 -88.078125 L 215.78125 -88.078125 Z M 84.546875 -190.140625 L 88.078125 -190.140625 L 88.078125 -193.671875 L 84.546875 -193.671875 Z M 97.640625 -190.140625 L 101.171875 -190.140625 L 101.171875 -193.671875 L 97.640625 -193.671875 Z M 111.25 -190.671875 L 113.734375 -190.671875 L 113.734375 -193.140625 L 111.25 -193.140625 Z M 124.515625 -190.484375 L 126.28125 -190.484375 L 126.28125 -192.265625 L 124.515625 -192.265625 Z M 79.234375 -183.0625 L 82.421875 -183.0625 L 82.421875 -188.015625 L 79.234375 -188.015625 Z M 90.90625 -183.0625 L 94.453125 -183.0625 L 94.453125 -186.59375 L 90.90625 -186.59375 Z M 104 -183.0625 L 107.53125 -183.0625 L 107.53125 -186.59375 L 104 -186.59375 Z M 117.625 -183.59375 L 120.09375 -183.59375 L 120.09375 -186.0625 L 117.625 -186.0625 Z M 131.234375 -184.125 L 133.015625 -184.125 L 133.015625 -185.890625 L 131.234375 -185.890625 Z M 83.84375 -176.703125 L 88.796875 -176.703125 L 88.796875 -181.640625 L 83.84375 -181.640625 Z M 97.640625 -176.875 L 101.171875 -176.875 L 101.171875 -180.40625 L 97.640625 -180.40625 Z M 110.71875 -176.875 L 114.265625 -176.875 L 114.265625 -180.40625 L 110.71875 -180.40625 Z M 124.34375 -177.40625 L 126.640625 -177.40625 L 126.640625 -179.703125 L 124.34375 -179.703125 Z M 137.953125 -177.75 L 139.734375 -177.75 L 139.734375 -179.53125 L 137.953125 -179.53125 Z M 79.234375 -129.46875 L 106.296875 -129.46875 L 106.296875 -139.734375 L 103.46875 -139.734375 L 103.46875 -144.15625 L 106.296875 -144.15625 L 106.296875 -151.21875 L 102.40625 -151.21875 L 102.40625 -157.421875 L 96.046875 -157.421875 L 96.046875 -163.78125 L 89.671875 -163.78125 L 89.671875 -170.15625 L 83.484375 -170.15625 L 83.484375 -176.34375 L 79.234375 -176.34375 L 79.234375 -169.265625 L 82.78125 -169.265625 L 82.78125 -164.84375 L 79.234375 -164.84375 Z M 90.03125 -170.5 L 94.984375 -170.5 L 94.984375 -175.28125 L 90.03125 -175.28125 Z M 104.359375 -169.96875 L 107.890625 -169.96875 L 107.890625 -173.515625 L 104.359375 -173.515625 Z M 117.4375 -169.96875 L 120.984375 -169.96875 L 120.984375 -173.515625 L 117.4375 -173.515625 Z M 131.0625 -170.5 L 133.53125 -170.5 L 133.53125 -172.984375 L 131.0625 -172.984375 Z M 144.6875 -170.859375 L 146.453125 -170.859375 L 146.453125 -172.625 L 144.6875 -172.625 Z M 96.390625 -164.140625 L 101.34375 -164.140625 L 101.34375 -169.09375 L 96.390625 -169.09375 Z M 84.546875 -158.484375 L 84.546875 -163.078125 L 88.96875 -163.078125 L 88.96875 -158.484375 Z M 102.765625 -157.765625 L 106.296875 -157.765625 L 106.296875 -162.71875 L 102.765625 -162.71875 Z M 112.671875 -129.46875 L 117.09375 -129.46875 C 123.695312 -129.46875 129.53125 -130.878906 134.59375 -133.703125 C 139.664062 -136.535156 143.675781 -140.398438 146.625 -145.296875 C 149.570312 -150.191406 151.046875 -155.820312 151.046875 -162.1875 L 112.671875 -162.1875 Z M 90.90625 -152.28125 L 90.90625 -156.703125 L 95.328125 -156.703125 L 95.328125 -152.28125 Z M 79.765625 -153.34375 L 79.765625 -155.640625 L 81.890625 -155.640625 L 81.890625 -153.34375 Z M 217.734375 -153.34375 L 217.734375 -154.9375 L 219.328125 -154.9375 L 219.328125 -153.34375 Z M 97.109375 -145.921875 L 97.109375 -150.34375 L 101.703125 -150.34375 L 101.703125 -145.921875 Z M 85.953125 -147.15625 L 85.953125 -149.28125 L 88.078125 -149.28125 L 88.078125 -147.15625 Z M 223.921875 -147.15625 L 223.921875 -148.75 L 225.515625 -148.75 L 225.515625 -147.15625 Z M 91.96875 -140.796875 L 91.96875 -142.90625 L 94.09375 -142.90625 L 94.09375 -140.796875 Z M 217.375 -140.4375 L 217.375 -142.734375 L 219.5 -142.734375 L 219.5 -140.4375 Z M 230.28125 -140.796875 L 230.28125 -142.375 L 231.875 -142.375 L 231.875 -140.796875 Z M 210.484375 -133.71875 L 210.484375 -136.90625 L 213.65625 -136.90625 L 213.65625 -133.71875 Z M 98.34375 -134.421875 L 98.34375 -136.71875 L 100.46875 -136.71875 L 100.46875 -134.421875 Z M 223.5625 -134.25 L 223.5625 -136.375 L 225.859375 -136.375 L 225.859375 -134.25 Z M 236.65625 -134.59375 L 236.65625 -136.015625 L 238.0625 -136.015625 L 238.0625 -134.59375 Z M 216.84375 -127.34375 L 216.84375 -130.53125 L 220.03125 -130.53125 L 220.03125 -127.34375 Z M 229.9375 -127.875 L 229.9375 -130.171875 L 232.0625 -130.171875 L 232.0625 -127.875 Z M 210.125 -120.625 L 210.125 -124.875 L 214.1875 -124.875 L 214.1875 -120.625 Z M 223.21875 -121.15625 L 223.21875 -124.34375 L 226.390625 -124.34375 L 226.390625 -121.15625 Z M 236.296875 -121.6875 L 236.296875 -123.8125 L 238.421875 -123.8125 L 238.421875 -121.6875 Z M 203.21875 -113.90625 L 203.21875 -119.03125 L 208.359375 -119.03125 L 208.359375 -113.90625 Z M 216.3125 -114.265625 L 216.3125 -118.5 L 220.5625 -118.5 L 220.5625 -114.265625 Z M 229.40625 -114.796875 L 229.40625 -117.96875 L 232.59375 -117.96875 L 232.59375 -114.796875 Z M 209.59375 -107.53125 L 209.59375 -112.671875 L 214.71875 -112.671875 L 214.71875 -107.53125 Z M 222.6875 -108.0625 L 222.6875 -112.140625 L 226.75 -112.140625 L 226.75 -108.0625 Z M 184.65625 -101.53125 L 189.609375 -101.53125 L 189.609375 -106.484375 L 188.375 -106.484375 L 184.65625 -102.765625 Z M 215.78125 -101.171875 L 215.78125 -106.296875 L 221.09375 -106.296875 L 221.09375 -101.171875 Z M 228.875 -101.703125 L 228.875 -105.953125 L 233.125 -105.953125 L 233.125 -101.703125 Z M 191.015625 -95.328125 L 195.96875 -95.328125 L 195.96875 -100.28125 L 191.015625 -100.28125 Z M 222.15625 -94.984375 L 222.15625 -100.109375 L 227.28125 -100.109375 L 227.28125 -94.984375 Z M 178.46875 -95.6875 L 182.359375 -95.6875 L 182.359375 -99.578125 L 181.125 -99.578125 L 178.46875 -97.28125 Z M 197.390625 -88.96875 L 202.171875 -88.96875 L 202.171875 -93.921875 L 197.390625 -93.921875 Z M 185.015625 -89.328125 L 188.71875 -89.328125 L 188.71875 -93.21875 L 185.015625 -93.21875 Z M 264.59375 31.125 L 211.1875 -59.421875 L 209.59375 -59.421875 L 209.59375 -62.265625 L 208.703125 -63.84375 L 202.34375 -63.84375 L 202.34375 -70.046875 L 195.96875 -70.046875 L 195.96875 -75.875 L 189.4375 -75.875 L 189.4375 -81 L 182.703125 -81 L 182.703125 -86.3125 L 175.8125 -86.3125 L 175.8125 -92.5 L 171.921875 -92.5 L 169.96875 -91.265625 L 172.796875 -86.140625 L 175.109375 -86.140625 L 175.109375 -81.890625 L 176.34375 -79.59375 L 176.34375 -80.65625 L 181.640625 -80.65625 L 181.640625 -75.34375 L 178.640625 -75.34375 L 185.359375 -62.96875 L 186.78125 -62.96875 L 186.78125 -60.484375 L 221.4375 3 Z M 203.578125 -82.59375 L 208.53125 -82.59375 L 208.53125 -87.546875 L 203.578125 -87.546875 Z M 191.375 -83.125 L 195.265625 -83.125 L 195.265625 -86.84375 L 191.375 -86.84375 Z M 209.953125 -76.40625 L 214.90625 -76.40625 L 214.90625 -81.359375 L 209.953125 -81.359375 Z M 197.5625 -76.9375 L 201.8125 -76.9375 L 201.8125 -81 L 197.5625 -81 Z M 79.234375 -70.578125 L 84.015625 -70.578125 L 84.015625 -76.40625 L 79.234375 -76.40625 Z M 183.421875 -70.21875 L 183.421875 -75 L 188.1875 -75 L 188.1875 -70.21875 Z M 203.9375 -70.578125 L 207.828125 -70.578125 L 208.359375 -70.921875 L 208.359375 -74.8125 L 203.9375 -74.8125 Z M 85.078125 -64.5625 L 90.203125 -64.5625 L 90.203125 -69.515625 L 85.078125 -69.515625 Z M 190.140625 -64.734375 L 190.140625 -68.984375 L 194.375 -68.984375 L 194.375 -64.734375 Z M 109.84375 32.1875 L 109.84375 -38.90625 L 103.828125 -38.90625 L 103.828125 -45.28125 L 97.453125 -45.28125 L 97.453125 -51.46875 L 91.265625 -51.46875 L 91.265625 -57.84375 L 84.71875 -57.84375 L 84.71875 -64.03125 L 79.234375 -64.03125 L 79.234375 3 Z M 196.6875 -59.609375 L 196.6875 -63.5 L 200.578125 -63.5 L 200.578125 -59.609375 Z M 91.625 -58.1875 L 96.390625 -58.1875 L 96.390625 -63.140625 L 91.625 -63.140625 Z M 204.28125 -54.828125 L 204.28125 -58.1875 L 207.640625 -58.1875 L 207.640625 -54.828125 Z M 190.484375 -54.828125 L 190.484375 -57.65625 L 193.328125 -57.65625 L 193.328125 -54.828125 Z M 79.765625 -52.703125 L 79.765625 -57.125 L 84.1875 -57.125 L 84.1875 -52.703125 Z M 97.8125 -51.828125 L 102.765625 -51.828125 L 102.765625 -56.78125 L 97.8125 -56.78125 Z M 211.1875 -50.40625 L 211.1875 -53.234375 L 214.015625 -53.234375 L 214.015625 -50.40625 Z M 198.09375 -50.765625 L 198.09375 -52.703125 L 200.046875 -52.703125 L 200.046875 -50.765625 Z M 85.953125 -46.34375 L 85.953125 -50.765625 L 90.375 -50.765625 L 90.375 -46.34375 Z M 104.171875 -45.640625 L 109.125 -45.640625 L 109.125 -50.40625 L 104.171875 -50.40625 Z M 92.328125 -39.96875 L 92.328125 -44.578125 L 96.75 -44.578125 L 96.75 -39.96875 Z M 80.828125 -41.21875 L 80.828125 -43.328125 L 82.953125 -43.328125 L 82.953125 -41.21875 Z M 98.515625 -33.78125 L 98.515625 -38.203125 L 103.109375 -38.203125 L 103.109375 -33.78125 Z M 87.203125 -34.84375 L 87.203125 -36.96875 L 89.328125 -36.96875 L 89.328125 -34.84375 Z M 104.890625 -27.421875 L 104.890625 -31.84375 L 109.3125 -31.84375 L 109.3125 -27.421875 Z M 93.390625 -28.65625 L 93.390625 -30.78125 L 95.6875 -30.78125 L 95.6875 -28.65625 Z M 99.75 -22.28125 L 99.75 -24.40625 L 101.875 -24.40625 L 101.875 -22.28125 Z M 106.125 -15.921875 L 106.125 -18.21875 L 108.25 -18.21875 L 108.25 -15.921875 Z M 106.125 -15.921875 "/></g></g></g><g fill="#000000" fill-opacity="0.302"><g transform="translate(268.087619, 295.471746)"><g/></g></g><g fill="#000000" fill-opacity="0.502"><g transform="translate(261.839467, 289.223593)"><g/></g></g><g fill="#000000" fill-opacity="1"><g transform="translate(255.591317, 282.975443)"><g/></g></g></svg>